<mxfile host="app.diagrams.net" agent="Mozilla/5.0 (Windows NT 10.0; Win64; x64) AppleWebKit/537.36 (KHTML, like Gecko) Chrome/134.0.0.0 Safari/537.36" version="26.2.2">
  <diagram name="Página-1" id="6RGqMpReRavRvvqiadKe">
    <mxGraphModel dx="874" dy="431" grid="1" gridSize="10" guides="1" tooltips="1" connect="1" arrows="1" fold="1" page="1" pageScale="1" pageWidth="827" pageHeight="1169" math="0" shadow="0">
      <root>
        <mxCell id="0" />
        <mxCell id="1" parent="0" />
        <mxCell id="reh0nbrDITSiX6gCGm1G-1" value="Desenvolvedor" style="shape=umlActor;verticalLabelPosition=bottom;verticalAlign=top;html=1;" parent="1" vertex="1">
          <mxGeometry x="640" y="170" width="30" height="60" as="geometry" />
        </mxCell>
        <mxCell id="reh0nbrDITSiX6gCGm1G-5" value="Responsavel pelo Setor" style="shape=umlActor;verticalLabelPosition=bottom;verticalAlign=top;html=1;" parent="1" vertex="1">
          <mxGeometry x="690" y="310" width="30" height="60" as="geometry" />
        </mxCell>
        <mxCell id="oTFmJEL-NclnvRwga8m3-19" style="edgeStyle=none;rounded=0;orthogonalLoop=1;jettySize=auto;html=1;exitX=0.325;exitY=0.383;exitDx=0;exitDy=0;exitPerimeter=0;" edge="1" parent="1" source="oTFmJEL-NclnvRwga8m3-5" target="oTFmJEL-NclnvRwga8m3-18">
          <mxGeometry relative="1" as="geometry" />
        </mxCell>
        <mxCell id="oTFmJEL-NclnvRwga8m3-5" value="Setor de Patrimônio" style="shape=umlActor;verticalLabelPosition=bottom;verticalAlign=top;html=1;" vertex="1" parent="1">
          <mxGeometry x="200" y="260" width="40" height="60" as="geometry" />
        </mxCell>
        <mxCell id="oTFmJEL-NclnvRwga8m3-12" value="Publico Externo" style="shape=umlActor;verticalLabelPosition=bottom;verticalAlign=top;html=1;" vertex="1" parent="1">
          <mxGeometry x="400" y="430" width="40" height="60" as="geometry" />
        </mxCell>
        <mxCell id="oTFmJEL-NclnvRwga8m3-13" value="Alterar o programa" style="ellipse;whiteSpace=wrap;html=1;align=center;newEdgeStyle={&quot;edgeStyle&quot;:&quot;entityRelationEdgeStyle&quot;,&quot;startArrow&quot;:&quot;none&quot;,&quot;endArrow&quot;:&quot;none&quot;,&quot;segment&quot;:10,&quot;curved&quot;:1,&quot;sourcePerimeterSpacing&quot;:0,&quot;targetPerimeterSpacing&quot;:0};treeFolding=1;treeMoving=1;" vertex="1" parent="1">
          <mxGeometry x="390" y="190" width="100" height="40" as="geometry" />
        </mxCell>
        <mxCell id="oTFmJEL-NclnvRwga8m3-16" value="" style="line;strokeWidth=2;html=1;" vertex="1" parent="1">
          <mxGeometry x="490" y="205" width="160" height="10" as="geometry" />
        </mxCell>
        <mxCell id="oTFmJEL-NclnvRwga8m3-18" value="Gravar Dados" style="ellipse;whiteSpace=wrap;html=1;align=center;newEdgeStyle={&quot;edgeStyle&quot;:&quot;entityRelationEdgeStyle&quot;,&quot;startArrow&quot;:&quot;none&quot;,&quot;endArrow&quot;:&quot;none&quot;,&quot;segment&quot;:10,&quot;curved&quot;:1,&quot;sourcePerimeterSpacing&quot;:0,&quot;targetPerimeterSpacing&quot;:0};treeFolding=1;treeMoving=1;" vertex="1" parent="1">
          <mxGeometry x="390" y="260" width="100" height="40" as="geometry" />
        </mxCell>
        <mxCell id="oTFmJEL-NclnvRwga8m3-20" value="Consultar Dados" style="ellipse;whiteSpace=wrap;html=1;align=center;newEdgeStyle={&quot;edgeStyle&quot;:&quot;entityRelationEdgeStyle&quot;,&quot;startArrow&quot;:&quot;none&quot;,&quot;endArrow&quot;:&quot;none&quot;,&quot;segment&quot;:10,&quot;curved&quot;:1,&quot;sourcePerimeterSpacing&quot;:0,&quot;targetPerimeterSpacing&quot;:0};treeFolding=1;treeMoving=1;" vertex="1" parent="1">
          <mxGeometry x="390" y="335" width="100" height="40" as="geometry" />
        </mxCell>
        <mxCell id="oTFmJEL-NclnvRwga8m3-21" value="" style="line;strokeWidth=2;html=1;" vertex="1" parent="1">
          <mxGeometry x="490" y="350" width="190" height="10" as="geometry" />
        </mxCell>
      </root>
    </mxGraphModel>
  </diagram>
</mxfile>
